<svg width="100" height="100" viewBox="0 0 100 100" fill="none" xmlns="http://www.w3.org/2000/svg">
<path d="M45.3534 44.1578C43.7887 45.2658 42.008 45.8786 40.2065 46.0156M45.3534 44.1578C45.289 44.0536 45.2171 43.9523 45.1378 43.8548C44.1539 42.6458 42.3905 42.4707 41.1991 43.4637C40.4282 44.1062 40.0857 45.0804 40.2065 46.0156M45.3534 44.1578C46.0879 45.3466 45.8574 46.9291 44.7621 47.8421C43.5706 48.8351 41.8072 48.66 40.8234 47.4509C40.4761 47.0242 40.2724 46.5257 40.2065 46.0156M40.2065 46.0156C38.663 46.1329 37.1043 45.901 35.653 45.3321M35.653 45.3321C36.1801 43.9723 37.0464 42.7261 38.2387 41.7324C39.7374 40.4832 41.5241 39.8222 43.3265 39.7223M35.653 45.3321C34.5246 48.2427 34.9501 51.6737 37.0577 54.2636C38.7216 56.3085 41.0951 57.4123 43.5161 57.5094C43.8662 57.5234 44.1892 57.7217 44.3377 58.0435L45.6267 60.8383C45.7237 61.0487 45.898 61.2127 46.1123 61.2953L47.9228 61.9931C48.3949 62.1751 48.6203 62.721 48.4159 63.1878L47.7943 64.6074C47.5647 65.1317 47.8786 65.7371 48.4359 65.8446L49.3817 66.0272C49.9193 66.131 50.2352 66.7011 50.0418 67.2188L49.5675 68.4881C49.4025 68.9297 49.6072 69.4258 50.0339 69.6183L50.4237 69.7941C50.7215 69.9284 50.922 70.2182 50.9448 70.5473L51.108 72.9035C51.1325 73.2572 51.3618 73.563 51.6918 73.6821L55.1989 74.9482C55.4188 75.0276 55.6605 75.0153 55.871 74.9142L56.6265 74.5511C56.8798 74.4294 57.0601 74.1924 57.112 73.9133L57.5554 71.5256C57.5884 71.3478 57.5671 71.1639 57.4943 70.9984L50.545 55.1949M35.653 45.3321C34.0393 44.6995 32.5585 43.6502 31.3793 42.201C27.7249 37.7103 28.3497 31.0797 32.775 27.3913C37.2002 23.703 43.75 24.3534 47.4044 28.8442C49.7615 31.7408 50.3383 35.5277 49.2632 38.841M60.5427 55.1586L68.3922 62.2624M43.3265 39.7223C45.0527 39.6266 46.7931 40.0456 48.3087 40.9555C49.1643 41.4692 49.9482 42.1393 50.6174 42.9617C53.3235 46.2872 53.2564 50.9994 50.6877 54.216C50.4671 54.4922 50.402 54.8696 50.545 55.1949M43.3265 39.7223L45.8664 37.6053C46.1913 37.3345 46.6514 37.2974 47.0155 37.5126L49.2632 38.841M50.545 55.1949L52.9198 54.689L55.5499 57.3353C55.6941 57.4803 55.8833 57.5705 56.0854 57.5906L57.9028 57.7711C58.3045 57.811 58.6285 58.1225 58.6887 58.5266L58.8691 59.7364C58.9101 60.0116 59.0758 60.252 59.3169 60.386L60.5936 61.0957C60.7433 61.1789 60.866 61.3043 60.9467 61.4567L61.5646 62.6234C61.7038 62.886 61.9631 63.0612 62.2558 63.0903L64.5324 63.3164C64.9092 63.3538 65.2207 63.6311 65.3057 64.0048L65.4226 64.518C65.5076 64.8917 65.8191 65.169 66.1958 65.2064L69.5707 65.5416C69.8782 65.5721 70.1785 65.4371 70.3618 65.1859L70.8283 64.5468C70.9667 64.3571 71.025 64.1194 70.9901 63.8858L70.7441 62.2351C70.7134 62.0291 70.6124 61.8403 70.4586 61.7016L57.0871 49.641L57.3412 44.2337C57.3586 43.8636 57.17 43.5143 56.8511 43.3259L49.2632 38.841" stroke="white" stroke-linecap="round" stroke-linejoin="round"/>
</svg>
