<svg width="100" height="100" viewBox="0 0 100 100" fill="none" xmlns="http://www.w3.org/2000/svg">
<path d="M61.046 31.6342C61.5762 31.3367 62.9798 30.6029 62.9798 30.6029C62.9798 30.6029 61.7336 29.9717 60.9652 29.587C60.5777 29.393 60.1717 29.391 59.7781 29.5723L57.8231 30.473L40.4189 38.4377M61.046 31.6342C57.7852 33.4634 43.2182 40.1324 41.5616 40.7228C41.9561 41.7985 43.8098 43.6983 48.5429 42.4075C52.6697 41.2819 61.5941 37.2123 67.0807 34.5839M61.046 31.6342L67.0807 34.5839M67.0807 34.5839C67.8867 34.1978 68.6185 33.8428 69.25 33.5327V65.1993L47.7541 74.8808C45.519 75.217 40.5361 75.0422 38.4852 71.6537V70.4297M46.3736 46.6431V69.0316M38.4852 70.4297V41.534C38.4852 40.2172 39.2357 39.0155 40.4189 38.4377V38.4377M38.4852 70.4297C36.8737 70.865 32.0392 70.4297 30.75 67.1652V37.1566C30.75 35.5895 31.665 34.1668 33.0909 33.5169L50.5611 25.5536C51.3342 25.2012 52.2205 25.1931 52.9999 25.5315L54.0317 25.9793L52.0979 26.9587M40.4189 38.4377C37.3355 38.5142 35.6261 37.575 34.3615 36.4862C33.8352 36.0332 33.9972 35.1953 34.6292 34.9077L52.0979 26.9587M52.0979 26.9587L58.6317 30.1004M51.3038 47.2482V53.9042L64.9114 48.4584V42.0041L51.3038 47.2482Z" stroke="white" stroke-linecap="round" stroke-linejoin="round"/>
</svg>
