<svg width="100" height="100" viewBox="0 0 100 100" fill="none" xmlns="http://www.w3.org/2000/svg">
<path d="M32 67.6061L36.0645 33.2569C44.9677 34.2163 56.0645 30.1226 61.4194 27.5L60.946 32.4893M32 67.6061C34.9032 68.8854 44.271 69.7169 58.5161 62.8087L60.946 32.4893M32 67.6061C34.9419 70.9834 53.4839 69.0133 62.3871 67.6061L64.8401 37.6704M32 67.6061C34.1935 70.1647 44.0387 74.5143 65.871 71.444L68 37.2867L64.8401 37.6704M60.946 32.4893L65.2903 31.7217L64.8401 37.6704" stroke="white" stroke-linecap="round" stroke-linejoin="round"/>
<path d="M38 46.4976L38.9677 36.7109C48.6452 37.2866 54.8387 34.2163 56.9677 33.2568L55.8065 42.6597C45.7419 47.2652 42.2581 46.4976 38 46.4976Z" stroke="white" stroke-linecap="round" stroke-linejoin="round"/>
</svg>
