<svg width="100" height="100" viewBox="0 0 100 100" fill="none" xmlns="http://www.w3.org/2000/svg">
<path d="M32.4219 68.2812L38.0469 68.2812" stroke="white" stroke-linecap="round"/>
<path d="M40.1562 68.2812H45.7812" stroke="white" stroke-linecap="round"/>
<path d="M47.8906 68.2812H53.5156" stroke="white" stroke-linecap="round"/>
<path d="M55.625 68.2812H61.25" stroke="white" stroke-linecap="round"/>
<path d="M32.0703 49.8297L30.0842 44.8761C29.4461 43.4266 30.0988 41.732 31.5421 41.0911L61.596 27.7458C63.0393 27.1049 64.7267 27.7604 65.3649 29.2099L70.4938 40.8594M32.0703 49.8297H30C28.6193 49.8297 27.5 50.949 27.5 52.3297V70C27.5 71.3807 28.6193 72.5 30 72.5H63.5755C64.9562 72.5 66.0755 71.3807 66.0755 70V53.5C66.0755 50.5 64.5 49.8297 62.4024 49.8297H59.4922M32.0703 49.8297H36.5859M43.3587 49.8297L64.0594 40.4059C65.0646 39.9483 65.5084 38.7626 65.0509 37.7574C64.5933 36.7523 63.4075 36.3084 62.4024 36.766L37.7575 47.9853C37.0135 48.324 36.577 49.0616 36.5859 49.8297M43.3587 49.8297H36.5859M43.3587 49.8297H51.4062M70.4938 40.8594L51.4062 49.8297M70.4938 40.8594L71.8868 44.0234M51.4062 49.8297H59.4922M59.4922 49.8297L71.8868 44.0234M71.8868 44.0234L72.1824 44.6948C72.8206 46.1443 72.5193 47.8974 71.076 48.5383L65.7317 51.5" stroke="white"/>
<path d="M55.2734 60.6439C54.6796 59.9622 54.3192 59.0667 54.3192 58.0859C54.3192 57.1052 54.6796 56.2097 55.2734 55.528M55.2734 60.6439C54.574 61.4468 53.5507 61.9531 52.4107 61.9531C50.3027 61.9531 48.5938 60.2217 48.5938 58.0859C48.5938 55.9501 50.3027 54.2188 52.4107 54.2188C53.5507 54.2188 54.574 54.7251 55.2734 55.528M55.2734 60.6439C55.9728 61.4468 56.9961 61.9531 58.1362 61.9531C60.2442 61.9531 61.9531 60.2217 61.9531 58.0859C61.9531 55.9501 60.2442 54.2188 58.1362 54.2188C56.9961 54.2188 55.9728 54.7251 55.2734 55.528" stroke="white"/>
<rect x="31.5156" y="54.7188" width="8.84375" height="7.4375" rx="1.5" stroke="white"/>
</svg>
