<svg width="100" height="100" viewBox="0 0 100 100" fill="none" xmlns="http://www.w3.org/2000/svg">
<path d="M56.9518 55.8473H27V70H56.9518V55.8473Z" stroke="white" stroke-miterlimit="10" stroke-linejoin="round"/>
<path d="M50.6656 60.689H46.3023V65.0837H50.6656V60.689Z" stroke="white" stroke-miterlimit="10" stroke-linejoin="round"/>
<path d="M44.8232 41.1731H40.4598V45.5679H44.8232V41.1731Z" stroke="white" stroke-miterlimit="10" stroke-linejoin="round"/>
<path d="M39.6463 60.9124H32.8425V69.9254H39.6463V60.9124Z" stroke="white" stroke-miterlimit="10" stroke-linejoin="round"/>
<path d="M51.1833 48.3984H32.6945L27 55.8472H56.9518L51.1833 48.3984Z" stroke="white" stroke-miterlimit="10" stroke-linejoin="round"/>
<path d="M50.7395 48.3984V45.5679H72.926V63.445H56.9517" stroke="white" stroke-miterlimit="10" stroke-linejoin="round"/>
<path d="M68.6367 63.4451V53.3147H62.4984V63.4451" stroke="white" stroke-miterlimit="10" stroke-linejoin="round"/>
<path d="M35.4309 48.3984V36.2568H61.8328V40.1302" stroke="white" stroke-miterlimit="10" stroke-linejoin="round"/>
<path d="M50.7395 45.568L56.0643 40.1304H67.7492L73 45.4935" stroke="white" stroke-miterlimit="10" stroke-linejoin="round"/>
<path d="M35.4309 36.257L41.6431 30H55.6946L61.9068 36.1825" stroke="white" stroke-miterlimit="10" stroke-linejoin="round"/>
</svg>
