<svg width="185" height="65" viewBox="0 0 185 65" fill="none" xmlns="http://www.w3.org/2000/svg">
<path d="M24.6535 43.0508V51.3795C24.6535 60.0303 20.4552 65 12.3267 65C4.19823 65 0 60.0303 0 51.3795V23.2182C0 14.5674 4.19823 9.59778 12.3267 9.59778C20.4552 9.59778 24.6535 14.5674 24.6535 23.2182V27.1295C24.6535 28.556 23.8495 30.2586 22.5097 30.2586H16.8376V22.6661C16.8376 18.8008 15.1851 17.3283 12.55 17.3283C9.91498 17.3283 8.26248 18.8008 8.26248 22.6661V51.9317C8.26248 55.7969 9.91498 57.1774 12.55 57.1774C15.1851 57.1774 16.8376 55.7969 16.8376 51.9317V46.1798C16.8376 44.7533 17.6862 43.0508 18.9814 43.0508H24.6535Z" fill="white"/>
<path d="M68.1094 33.0195H79.4536V37.437C79.4536 39.2776 78.0244 40.7501 76.2379 40.7501H68.1094V56.6253H82.4013V61.0427C82.4013 62.8833 80.9721 64.3558 79.1856 64.3558H59.8469V13.8312C59.8469 11.8066 61.4101 10.196 63.3752 10.196H82.4013V14.6135C82.4013 16.4541 80.9721 17.9266 79.1856 17.9266H68.1541V33.0195H68.1094Z" fill="white"/>
<path d="M110.449 64.4019H105.894L104.465 54.5546H94.3263L93.2991 61.5489C93.0757 63.1594 91.6912 64.4019 90.0834 64.4019H85.2599L93.2097 13.2791C93.4777 11.5305 94.9516 10.196 96.6934 10.196H105.849L113.665 60.5366C113.978 62.5612 112.459 64.4019 110.449 64.4019ZM95.3982 47.1922H103.348L99.3731 19.8132L95.3982 47.1922Z" fill="white"/>
<path d="M54.4432 57.8222V49.4474C54.4432 43.7876 53.1033 39.6922 48.9498 37.8976C52.6121 36.103 54.3539 32.4678 54.3539 26.9V22.6206C54.3539 14.2459 50.6916 10.1505 42.1165 10.1505H33.1841C31.2189 10.1505 29.6558 11.761 29.6558 13.7857V64.3103H35.5958C37.1143 64.3103 37.9182 62.5157 37.9182 60.9972V42.3151H40.7766C44.5282 42.3151 46.1807 44.1557 46.1807 49.2173V57.7301C46.1807 62.1476 46.4934 62.9759 46.94 64.4023H53.5946C54.4432 64.4023 55.0238 63.6201 54.8452 62.7458C54.4879 61.2733 54.4432 59.7088 54.4432 57.8222ZM46.1361 28.8787C46.1361 33.2041 44.2603 34.5845 41.1786 34.5845H37.9629V17.9271H41.9378C44.8855 17.9271 46.1361 19.6296 46.1361 23.4949V28.8787V28.8787Z" fill="white"/>
<path d="M129.932 9.59778C136.542 9.59778 140.472 12.9569 141.723 18.9388C142.08 20.6874 141.097 22.436 139.445 23.0342H134.309V22.6661C134.309 18.8008 132.79 17.3283 130.155 17.3283C127.52 17.3283 126.046 18.8008 126.046 22.6661C126.046 33.8017 142.214 35.9184 142.214 51.3795C142.214 60.0303 138.016 65 129.887 65C121.759 65 117.56 60.0303 117.56 51.3795C117.56 49.5389 118.99 48.0664 120.776 48.0664H125.376V51.9317C125.376 55.797 127.029 57.1774 129.664 57.1774C132.299 57.1774 133.951 55.797 133.951 51.9317C133.951 40.796 117.784 38.6793 117.784 23.2183C117.739 14.5214 121.893 9.59778 129.932 9.59778Z" fill="white"/>
<path d="M162.982 10.1958H185V14.6133C185 16.4539 183.571 17.9263 181.784 17.9263H176.38V61.0425C176.38 62.8831 174.951 64.3556 173.165 64.3556H168.118V17.9263H159.498V13.831C159.453 11.8063 161.016 10.1958 162.982 10.1958Z" fill="white"/>
<path d="M147.44 64.3557H152.486C154.273 64.3557 155.702 62.8833 155.702 61.0427V24.0465H149.762C147.841 24.0465 147.44 25.9331 147.44 27.4516V64.3557Z" fill="white"/>
<path d="M151.548 20.2266C154.237 20.2266 156.417 17.981 156.417 15.211C156.417 12.4409 154.237 10.1953 151.548 10.1953C148.86 10.1953 146.68 12.4409 146.68 15.211C146.68 17.981 148.86 20.2266 151.548 20.2266Z" fill="#00ED60"/>
<path d="M75.9703 3.08301L77.2655 0H68.9583C67.3951 0 66.0553 0.966317 65.5193 2.48482L64.2688 5.52181H72.5759C74.0945 5.56783 75.4343 4.55549 75.9703 3.08301Z" fill="white"/>
</svg>
